<mxfile host="app.diagrams.net" modified="2023-05-19T10:03:07.569Z" agent="Mozilla/5.0 (Windows NT 10.0; Win64; x64) AppleWebKit/537.36 (KHTML, like Gecko) Chrome/113.0.0.0 Safari/537.36" version="21.1.9" etag="Va5HTsKcV995I829qn51" type="github">
  <diagram name="Page-1" id="trvowSuL7gmv8eXjNP-i">
    <mxGraphModel>
      <root>
        <mxCell id="0" />
        <mxCell id="1" parent="0" />
      </root>
    </mxGraphModel>
  </diagram>
</mxfile>
